<?xml version="1.0" encoding="utf-8"?>
<!-- Generator: Adobe Illustrator 23.0.0, SVG Export Plug-In . SVG Version: 6.00 Build 0)  -->
<svg version="1.1" id="Layer_1" xmlns="http://www.w3.org/2000/svg" xmlns:xlink="http://www.w3.org/1999/xlink" x="0px" y="0px"
	 viewBox="0 0 56 76" style="enable-background:new 0 0 56 76;" xml:space="preserve">
<style type="text/css">
	.st0{display:none;fill-rule:evenodd;clip-rule:evenodd;fill:#84AE9C;}
	.st1{fill-rule:evenodd;clip-rule:evenodd;fill:#84AE9C;}
	.st2{fill-rule:evenodd;clip-rule:evenodd;fill:#0E5B50;}
</style>
<path class="st0" d="M38.7,33c-1.3,2.6-3.4,4.7-6.1,5.9C31,39.6,29.3,40,27.5,40c-2.1,0-4-0.5-5.7-1.4c-4-2.1-6.8-6.3-6.8-11.1
	C15,20.6,20.6,15,27.5,15c5.3,0,9.8,3.3,11.7,8h15.5C52.5,10,41.2,0,27.5,0C12.3,0,0,12.3,0,27.5c0,10.6,6,19.9,14.9,24.4
	c3.8,2,8.1,3.1,12.6,3.1c4,0,7.8-0.9,11.3-2.4c8-3.6,13.9-10.8,15.7-19.6H38.7z"/>
<path class="st1" d="M38.7,33c-1.3,2.6-3.4,4.7-6.1,5.9C31,39.6,29.3,40,27.5,40c-2.1,0-4-0.5-5.7-1.4c-3.9-2-6.6-6-6.8-10.6H0
	c0,17.4,18.8,26.6,27.5,48c7.8-19.3,23.9-28.4,27-43H38.7z"/>
<path class="st2" d="M38.7,33c-1.3,2.6-3.4,4.7-6.1,5.9C31,39.6,29.3,40,27.5,40c-2.1,0-4-0.5-5.7-1.4c-4-2.1-6.8-6.3-6.8-11.1
	C15,20.6,20.6,15,27.5,15c5.3,0,9.8,3.3,11.7,8h15.5C52.5,10,41.2,0,27.5,0C12.3,0,0,12.3,0,27.5c0,10.6,6,19.9,14.9,24.4
	c3.8,2,8.1,3.1,12.6,3.1c4,0,7.8-0.9,11.3-2.4c8-3.6,13.9-10.8,15.7-19.6H38.7z"/>
</svg>
