<?xml version="1.0" encoding="UTF-8"?>
<svg width="56px" height="76px" viewBox="0 0 56 76" version="1.1" xmlns="http://www.w3.org/2000/svg" xmlns:xlink="http://www.w3.org/1999/xlink">
    <!-- Generator: Sketch 48.2 (47327) - http://www.bohemiancoding.com/sketch -->
    <title>C Pin</title>
    <desc>Created with Sketch.</desc>
    <defs></defs>
    <g id="Page-1" stroke="none" stroke-width="1" fill="none" fill-rule="evenodd">
        <g id="C-Pin">
            <g id="Pin-#2">
                <g>
                    <path d="M27.5,28 C36.2294782,49.3678537 55,58.6492273 55,76 L0,76 C0,58.2183367 18.8243674,49.4052092 27.5,28 Z" id="Triangle" fill="#84AE9C" transform="translate(27.500000, 52.000000) rotate(180.000000) translate(-27.500000, -52.000000) "></path>
                    <path d="M27.5,55 C31.5082074,55 35.3161306,54.1424816 38.7503196,52.6008949 C48.3289004,48.3011276 55,38.6796232 55,27.5 C55,12.3121694 42.6878306,0 27.5,0 C12.3121694,0 0,12.3121694 0,27.5 C0,38.1461008 6.04956629,47.3792497 14.8986057,51.9493535 C18.6736917,53.8990042 22.9582702,55 27.5,55 Z" id="Oval-Copy-4" fill="#84AE9C"></path>
                    <path d="M27.5,55 C31.5082074,55 35.3161306,54.1424816 38.7503196,52.6008949 C48.3289004,48.3011276 55,38.6796232 55,27.5 C55,12.3121694 42.6878306,0 27.5,0 C12.3121694,0 0,12.3121694 0,27.5 C0,38.1461008 6.04956629,47.3792497 14.8986057,51.9493535 C18.6736917,53.8990042 22.9582702,55 27.5,55 Z" id="Oval-Copy-6" fill="#0E5B50"></path>
                    <path d="M27.5,40 C29.3219125,40 31.0527867,39.6102189 32.6137816,38.9094977 C36.967682,36.955058 40,32.5816469 40,27.5 C40,20.5964406 34.4035594,15 27.5,15 C20.5964406,15 15,20.5964406 15,27.5 C15,32.3391367 17.7498029,36.5360226 21.7720935,38.6133425 C23.4880417,39.4995473 25.4355774,40 27.5,40 Z" id="Oval-Copy-5" fill="#FFFFFF"></path>
                    <rect id="Rectangle-2" fill="#FFFFFF" x="35" y="23" width="21" height="10"></rect>
                </g>
            </g>
        </g>
    </g>
</svg>